<svg width="30" height="26" viewBox="0 0 30 26" fill="none" xmlns="http://www.w3.org/2000/svg">
  <path d="M29.197 22.0454C28.6305 21.4876 21.765 18.832 20.5192 18.331C19.28 17.8388 18.7856 16.4749 18.7856 16.4749C18.7856 16.4749 18.2278 16.7834 18.2278 15.9171C18.2278 15.0498 18.7856 16.4749 19.3434 13.1302C19.3434 13.1302 20.8911 12.696 20.5838 9.10524H20.2119C20.2119 9.10524 21.1416 5.26617 20.2119 3.9668C19.2789 2.66742 18.9136 1.80117 16.865 1.17992C14.8197 0.559767 15.5634 0.683361 14.0781 0.746798C12.5906 0.809142 11.3525 1.61414 11.3525 2.04617C11.3525 2.04617 10.4228 2.10852 10.0531 2.48039C9.68126 2.85227 9.0622 4.58477 9.0622 5.01789C9.0622 5.45102 9.37173 8.36477 9.68126 8.98164L9.31267 9.10195C9.00314 12.6938 10.5508 13.1291 10.5508 13.1291C11.1086 16.4738 11.6664 15.0487 11.6664 15.916C11.6664 16.7823 11.1086 16.4738 11.1086 16.4738C11.1086 16.4738 10.6131 17.8366 9.37501 18.3299C8.13689 18.8254 1.26376 21.4876 0.704856 22.0443C0.147043 22.613 0.209387 25.2118 0.209387 25.2118H29.6903C29.6903 25.2118 29.7592 22.6109 29.1949 22.0432L29.197 22.0454ZM16.1759 10.9766C15.7406 10.7032 15.3195 9.6532 15.3195 9.18289V8.92477C15.2047 8.80883 14.6917 8.81977 14.5867 8.92477V9.18289C14.5867 9.6532 14.1656 10.7032 13.7303 10.9766C13.2928 11.2501 11.9694 11.2359 11.4509 10.7185C10.9336 10.2012 10.8778 8.89961 10.7477 8.77164C10.6186 8.64039 10.5453 8.5693 10.5453 8.5693L10.5781 8.11649C10.5781 8.11649 11.4969 7.89008 12.4353 7.89008C13.3738 7.89008 14.4074 8.44024 14.4074 8.44024C14.6611 8.3593 15.2659 8.34945 15.4978 8.44024C15.4978 8.44024 16.5314 7.89117 17.4699 7.89117C18.4083 7.89117 19.3292 8.11867 19.3292 8.11867L19.3599 8.57149L19.1575 8.77383C19.0284 8.90289 18.9716 10.2045 18.4542 10.7207C17.9402 11.238 16.6145 11.2534 16.177 10.9788L16.1759 10.9766Z" fill="white"/>
</svg>
