<svg width="59" height="87" viewBox="0 0 59 87" fill="none" xmlns="http://www.w3.org/2000/svg">
  <path d="M54.516 26.7357C55.1049 33.0715 52.9622 37.5623 48.0879 40.208C51.9154 41.1828 54.7777 42.9756 56.6751 45.5865C58.5724 48.1974 59.3085 51.9223 58.8832 56.7612C58.6542 59.2329 58.1226 61.4086 57.2884 63.2885C56.4543 65.1683 55.3993 66.7175 54.1235 67.9359C52.8477 69.1543 51.2611 70.1726 49.3638 70.9907C47.4664 71.8088 45.4791 72.4093 43.4018 72.7922C41.3246 73.1751 38.9447 73.4362 36.2622 73.5755V86.8911H28.7056V73.7843C26.0885 73.7843 24.093 73.7669 22.7191 73.7321V86.8911H15.1624V73.5755C14.5736 73.5755 13.6903 73.5668 12.5127 73.5494C11.335 73.532 10.4354 73.5232 9.81387 73.5232H0L1.52115 63.9673H6.96785C8.60349 63.9673 9.55216 63.0796 9.81387 61.3042V40.3125H10.599C10.4027 40.2777 10.141 40.2602 9.81387 40.2602V25.2736C9.3886 22.9064 7.93288 21.7228 5.4467 21.7228H0V13.159L10.4027 13.2112C12.4963 13.2112 14.0829 13.1938 15.1624 13.159V0H22.7191V12.8979C25.4016 12.8283 27.397 12.7935 28.7056 12.7935V0H36.2622V13.159C38.8466 13.4027 41.1365 13.7943 43.1319 14.3339C45.1274 14.8735 46.9757 15.6568 48.6768 16.6837C50.3778 17.7107 51.7273 19.0684 52.725 20.7567C53.7227 22.4451 54.3198 24.4381 54.516 26.7357ZM43.9661 55.1947C43.9661 53.9414 43.7208 52.8274 43.2301 51.8527C42.7394 50.8779 42.1342 50.0773 41.4145 49.4507C40.6948 48.824 39.7543 48.2931 38.593 47.858C37.4317 47.4228 36.3604 47.1008 35.379 46.892C34.3976 46.6831 33.1872 46.5264 31.7479 46.422C30.3085 46.3176 29.1799 46.2653 28.3621 46.2653C27.5443 46.2653 26.4893 46.2827 25.1971 46.3176C23.9049 46.3524 23.128 46.3698 22.8663 46.3698V64.0195C23.128 64.0195 23.7332 64.0282 24.6819 64.0456C25.6305 64.063 26.4157 64.0718 27.0372 64.0718C27.6587 64.0718 28.5256 64.0456 29.6379 63.9934C30.7501 63.9412 31.707 63.8716 32.5084 63.7846C33.3099 63.6975 34.2422 63.5496 35.3054 63.3407C36.3686 63.1318 37.2763 62.8881 38.0287 62.6096C38.7811 62.3311 39.5581 61.9656 40.3595 61.5131C41.161 61.0605 41.8071 60.5383 42.2978 59.9465C42.7885 59.3547 43.1892 58.6585 43.5 57.8578C43.8107 57.0571 43.9661 56.1694 43.9661 55.1947ZM40.4822 30.3388C40.4822 29.19 40.2777 28.1717 39.8688 27.284C39.4599 26.3963 38.9611 25.6653 38.3722 25.0909C37.7834 24.5165 36.9983 24.0291 36.0169 23.6287C35.0355 23.2284 34.1359 22.9412 33.3181 22.7671C32.5003 22.5931 31.4943 22.4538 30.3003 22.3494C29.1063 22.245 28.1576 22.2014 27.4543 22.2189C26.751 22.2363 25.8677 22.2537 24.8045 22.2711C23.7414 22.2885 23.0953 22.2972 22.8663 22.2972V38.3282C23.0299 38.3282 23.5942 38.3369 24.5592 38.3543C25.5242 38.3717 26.2848 38.3717 26.8409 38.3543C27.397 38.3369 28.2149 38.3021 29.2944 38.2498C30.3739 38.1976 31.2735 38.1019 31.9932 37.9626C32.7129 37.8234 33.5552 37.6319 34.5203 37.3882C35.4853 37.1446 36.2786 36.8225 36.9001 36.4222C37.5217 36.0219 38.1269 35.5519 38.7157 35.0123C39.3045 34.4727 39.7462 33.8026 40.0406 33.0019C40.335 32.2012 40.4822 31.3135 40.4822 30.3388Z" fill="white"/>
</svg>
