<svg width="95" height="103" viewBox="0 0 95 103" fill="none" xmlns="http://www.w3.org/2000/svg">
  <path d="M89.7248 24.3398C89.8627 24.2594 89.9771 24.1442 90.0566 24.0057C90.1361 23.8673 90.1779 23.7104 90.1779 23.5508C90.1779 23.3912 90.1361 23.2343 90.0566 23.0959C89.9771 22.9574 89.8627 22.8422 89.7248 22.7618L54.8442 2.49665C52.6124 1.20301 50.0785 0.521729 47.4989 0.521729C44.9192 0.521729 42.3853 1.20301 40.1535 2.49665L5.27981 22.7618C5.14192 22.8422 5.02752 22.9574 4.94801 23.0959C4.8685 23.2343 4.82666 23.3912 4.82666 23.5508C4.82666 23.7104 4.8685 23.8673 4.94801 24.0057C5.02752 24.1442 5.14192 24.2594 5.27981 24.3398L47.0433 48.9073C47.1838 48.9901 47.3438 49.0337 47.5069 49.0337C47.6699 49.0337 47.83 48.9901 47.9704 48.9073L89.7248 24.3398Z" fill="#731DB7"/>
  <path d="M1.37021 30.5535C1.23091 30.4731 1.07285 30.4309 0.911997 30.4312C0.751147 30.4314 0.593216 30.4741 0.454177 30.555C0.315137 30.6359 0.199918 30.752 0.120171 30.8917C0.0404237 31.0314 -0.00102417 31.1897 1.92236e-05 31.3505V71.061C0.00346687 72.9746 0.507833 74.854 1.46296 76.5123C2.41808 78.1705 3.79068 79.5498 5.44425 80.513L42.476 102.717C42.6148 102.797 42.7722 102.839 42.9325 102.839C43.0927 102.839 43.2502 102.797 43.389 102.717C43.5279 102.637 43.6432 102.522 43.7234 102.383C43.8037 102.245 43.846 102.087 43.8462 101.927V55.8541C43.846 55.694 43.8037 55.5366 43.7236 55.3979C43.6434 55.2593 43.5282 55.1441 43.3894 55.064L1.37021 30.5535Z" fill="#731DB7"/>
  <path d="M51.1538 56.0141V101.916C51.154 102.076 51.1963 102.233 51.2765 102.372C51.3568 102.511 51.4721 102.626 51.6109 102.706C51.7498 102.786 51.9072 102.828 52.0675 102.828C52.2278 102.828 52.3852 102.786 52.524 102.706L89.5534 80.5018C91.2058 79.5398 92.5778 78.1624 93.5332 76.5063C94.4886 74.8503 94.9943 72.9731 95 71.0611V31.3507C94.9994 31.1906 94.9568 31.0335 94.8764 30.8951C94.796 30.7567 94.6806 30.6418 94.5418 30.562C94.4031 30.4822 94.2458 30.4403 94.0857 30.4404C93.9256 30.4406 93.7684 30.4828 93.6298 30.5628L51.6105 55.2263C51.4721 55.3062 51.3571 55.421 51.277 55.5592C51.1969 55.6975 51.1544 55.8543 51.1538 56.0141Z" fill="#731DB7"/>
</svg>
