<svg width="311" height="71" viewBox="0 0 311 71" fill="none" xmlns="http://www.w3.org/2000/svg">
  <path d="M61.3907 16.8183C61.485 16.7633 61.5633 16.6845 61.6177 16.5897C61.6721 16.495 61.7007 16.3877 61.7007 16.2785C61.7007 16.1692 61.6721 16.0619 61.6177 15.9672C61.5633 15.8725 61.485 15.7937 61.3907 15.7386L37.525 1.87299C35.998 0.987867 34.2643 0.521729 32.4993 0.521729C30.7342 0.521729 29.0005 0.987867 27.4735 1.87299L3.61254 15.7386C3.51819 15.7937 3.43992 15.8725 3.38552 15.9672C3.33112 16.0619 3.30249 16.1692 3.30249 16.2785C3.30249 16.3877 3.33112 16.495 3.38552 16.5897C3.43992 16.6845 3.51819 16.7633 3.61254 16.8183L32.1875 33.6277C32.2837 33.6843 32.3932 33.7141 32.5047 33.7141C32.6163 33.7141 32.7258 33.6843 32.8219 33.6277L61.3907 16.8183Z" fill="#731DB7"/>
  <path d="M0.937513 21.0698C0.842204 21.0148 0.734053 20.9859 0.623998 20.9861C0.513943 20.9863 0.405885 21.0155 0.310752 21.0708C0.21562 21.1262 0.136786 21.2056 0.0822223 21.3012C0.0276583 21.3968 -0.000700748 21.5051 1.3153e-05 21.6151V48.7855C0.00237207 50.0948 0.347465 51.3807 1.00097 52.5153C1.65448 53.6499 2.59362 54.5936 3.72501 55.2526L29.0625 70.4448C29.1575 70.4997 29.2652 70.5285 29.3749 70.5286C29.4845 70.5286 29.5922 70.4998 29.6872 70.445C29.7822 70.3902 29.8611 70.3114 29.916 70.2165C29.9709 70.1216 29.9999 70.0139 30 69.9042V38.3808C29.9999 38.2712 29.971 38.1635 29.9161 38.0686C29.8613 37.9737 29.7824 37.8949 29.6875 37.8401L0.937513 21.0698Z" fill="#731DB7"/>
  <path d="M35 38.4902V69.8965C35.0001 70.0061 35.0291 70.1138 35.084 70.2088C35.1389 70.3037 35.2178 70.3825 35.3128 70.4373C35.4078 70.4921 35.5155 70.5209 35.6252 70.5208C35.7348 70.5208 35.8425 70.4919 35.9375 70.4371L61.2734 55.2449C62.404 54.5868 63.3427 53.6443 63.9964 52.5112C64.6501 51.3781 64.9961 50.0937 65 48.7855V21.6152C64.9996 21.5057 64.9705 21.3982 64.9154 21.3035C64.8604 21.2088 64.7815 21.1302 64.6865 21.0756C64.5916 21.021 64.484 20.9923 64.3745 20.9924C64.2649 20.9925 64.1574 21.0214 64.0625 21.0762L35.3125 37.9512C35.2178 38.0058 35.1391 38.0844 35.0843 38.179C35.0294 38.2736 35.0004 38.3809 35 38.4902Z" fill="#731DB7"/>
  <path d="M143.391 16.8183C143.485 16.7633 143.563 16.6845 143.618 16.5897C143.672 16.495 143.701 16.3877 143.701 16.2785C143.701 16.1692 143.672 16.0619 143.618 15.9672C143.563 15.8725 143.485 15.7937 143.391 15.7386L119.525 1.87299C117.998 0.987867 116.264 0.521729 114.499 0.521729C112.734 0.521729 111.001 0.987867 109.473 1.87299L85.6125 15.7386C85.5182 15.7937 85.4399 15.8725 85.3855 15.9672C85.3311 16.0619 85.3025 16.1692 85.3025 16.2785C85.3025 16.3877 85.3311 16.495 85.3855 16.5897C85.4399 16.6845 85.5182 16.7633 85.6125 16.8183L114.188 33.6277C114.284 33.6843 114.393 33.7141 114.505 33.7141C114.616 33.7141 114.726 33.6843 114.822 33.6277L143.391 16.8183Z" fill="#731DB7"/>
  <path d="M82.9375 21.0698C82.8422 21.0148 82.7341 20.9859 82.624 20.9861C82.5139 20.9863 82.4059 21.0155 82.3108 21.0708C82.2156 21.1262 82.1368 21.2056 82.0822 21.3012C82.0277 21.3968 81.9993 21.5051 82 21.6151V48.7855C82.0024 50.0948 82.3475 51.3807 83.001 52.5153C83.6545 53.6499 84.5936 54.5936 85.725 55.2526L111.063 70.4448C111.157 70.4997 111.265 70.5285 111.375 70.5286C111.485 70.5286 111.592 70.4998 111.687 70.445C111.782 70.3902 111.861 70.3114 111.916 70.2165C111.971 70.1216 112 70.0139 112 69.9042V38.3808C112 38.2712 111.971 38.1635 111.916 38.0686C111.861 37.9737 111.782 37.8949 111.688 37.8401L82.9375 21.0698Z" fill="#731DB7"/>
  <path d="M117 38.4902V69.8965C117 70.0061 117.029 70.1138 117.084 70.2088C117.139 70.3037 117.218 70.3825 117.313 70.4373C117.408 70.4921 117.516 70.5209 117.625 70.5208C117.735 70.5208 117.843 70.4919 117.938 70.4371L143.273 55.2449C144.404 54.5868 145.343 53.6443 145.996 52.5112C146.65 51.3781 146.996 50.0937 147 48.7855V21.6152C147 21.5057 146.97 21.3982 146.915 21.3035C146.86 21.2088 146.781 21.1302 146.687 21.0756C146.592 21.021 146.484 20.9923 146.374 20.9924C146.265 20.9925 146.157 21.0214 146.063 21.0762L117.313 37.9512C117.218 38.0058 117.139 38.0844 117.084 38.179C117.029 38.2736 117 38.3809 117 38.4902Z" fill="#731DB7"/>
  <path d="M225.391 16.8183C225.485 16.7633 225.563 16.6845 225.618 16.5897C225.672 16.495 225.701 16.3877 225.701 16.2785C225.701 16.1692 225.672 16.0619 225.618 15.9672C225.563 15.8725 225.485 15.7937 225.391 15.7386L201.525 1.87299C199.998 0.987867 198.264 0.521729 196.499 0.521729C194.734 0.521729 193.001 0.987867 191.473 1.87299L167.613 15.7386C167.518 15.7937 167.44 15.8725 167.386 15.9672C167.331 16.0619 167.302 16.1692 167.302 16.2785C167.302 16.3877 167.331 16.495 167.386 16.5897C167.44 16.6845 167.518 16.7633 167.613 16.8183L196.188 33.6277C196.284 33.6843 196.393 33.7141 196.505 33.7141C196.616 33.7141 196.726 33.6843 196.822 33.6277L225.391 16.8183Z" fill="#731DB7"/>
  <path d="M164.938 21.0698C164.842 21.0148 164.734 20.9859 164.624 20.9861C164.514 20.9863 164.406 21.0155 164.311 21.0708C164.216 21.1262 164.137 21.2056 164.082 21.3012C164.028 21.3968 163.999 21.5051 164 21.6151V48.7855C164.002 50.0948 164.347 51.3807 165.001 52.5153C165.654 53.6499 166.594 54.5936 167.725 55.2526L193.063 70.4448C193.157 70.4997 193.265 70.5285 193.375 70.5286C193.485 70.5286 193.592 70.4998 193.687 70.445C193.782 70.3902 193.861 70.3114 193.916 70.2165C193.971 70.1216 194 70.0139 194 69.9042V38.3808C194 38.2712 193.971 38.1635 193.916 38.0686C193.861 37.9737 193.782 37.8949 193.688 37.8401L164.938 21.0698Z" fill="#731DB7"/>
  <path d="M199 38.4902V69.8965C199 70.0061 199.029 70.1138 199.084 70.2088C199.139 70.3037 199.218 70.3825 199.313 70.4373C199.408 70.4921 199.516 70.5209 199.625 70.5208C199.735 70.5208 199.843 70.4919 199.938 70.4371L225.273 55.2449C226.404 54.5868 227.343 53.6443 227.996 52.5112C228.65 51.3781 228.996 50.0937 229 48.7855V21.6152C229 21.5057 228.97 21.3982 228.915 21.3035C228.86 21.2088 228.781 21.1302 228.687 21.0756C228.592 21.021 228.484 20.9923 228.374 20.9924C228.265 20.9925 228.157 21.0214 228.063 21.0762L199.313 37.9512C199.218 38.0058 199.139 38.0844 199.084 38.179C199.029 38.2736 199 38.3809 199 38.4902Z" fill="#731DB7"/>
  <path d="M307.391 16.8183C307.485 16.7633 307.563 16.6845 307.618 16.5897C307.672 16.495 307.701 16.3877 307.701 16.2785C307.701 16.1692 307.672 16.0619 307.618 15.9672C307.563 15.8725 307.485 15.7937 307.391 15.7386L283.525 1.87299C281.998 0.987867 280.264 0.521729 278.499 0.521729C276.734 0.521729 275.001 0.987867 273.473 1.87299L249.613 15.7386C249.518 15.7937 249.44 15.8725 249.386 15.9672C249.331 16.0619 249.302 16.1692 249.302 16.2785C249.302 16.3877 249.331 16.495 249.386 16.5897C249.44 16.6845 249.518 16.7633 249.613 16.8183L278.188 33.6277C278.284 33.6843 278.393 33.7141 278.505 33.7141C278.616 33.7141 278.726 33.6843 278.822 33.6277L307.391 16.8183Z" fill="#731DB7"/>
  <path d="M246.938 21.0698C246.842 21.0148 246.734 20.9859 246.624 20.9861C246.514 20.9863 246.406 21.0155 246.311 21.0708C246.216 21.1262 246.137 21.2056 246.082 21.3012C246.028 21.3968 245.999 21.5051 246 21.6151V48.7855C246.002 50.0948 246.347 51.3807 247.001 52.5153C247.654 53.6499 248.594 54.5936 249.725 55.2526L275.063 70.4448C275.157 70.4997 275.265 70.5285 275.375 70.5286C275.485 70.5286 275.592 70.4998 275.687 70.445C275.782 70.3902 275.861 70.3114 275.916 70.2165C275.971 70.1216 276 70.0139 276 69.9042V38.3808C276 38.2712 275.971 38.1635 275.916 38.0686C275.861 37.9737 275.782 37.8949 275.688 37.8401L246.938 21.0698Z" fill="#731DB7"/>
  <path d="M281 38.4902V69.8965C281 70.0061 281.029 70.1138 281.084 70.2088C281.139 70.3037 281.218 70.3825 281.313 70.4373C281.408 70.4921 281.516 70.5209 281.625 70.5208C281.735 70.5208 281.843 70.4919 281.938 70.4371L307.273 55.2449C308.404 54.5868 309.343 53.6443 309.996 52.5112C310.65 51.3781 310.996 50.0937 311 48.7855V21.6152C311 21.5057 310.97 21.3982 310.915 21.3035C310.86 21.2088 310.781 21.1302 310.687 21.0756C310.592 21.021 310.484 20.9923 310.374 20.9924C310.265 20.9925 310.157 21.0214 310.063 21.0762L281.313 37.9512C281.218 38.0058 281.139 38.0844 281.084 38.179C281.029 38.2736 281 38.3809 281 38.4902Z" fill="#731DB7"/>
</svg>
