<svg width="96" height="113" viewBox="0 0 96 113" fill="none" xmlns="http://www.w3.org/2000/svg">
  <path d="M37.0146 44.901C37.0146 34.6134 29.6509 31.6646 21.6795 30.0036L17.4543 29.1624C11.2099 27.955 10.731 26.1725 10.731 23.7864C10.731 20.6911 13.5665 18.839 18.3142 18.839C23.9381 18.839 25.3822 21.6199 25.9809 23.7078L26.0353 23.8846C26.7446 25.7064 28.3883 26.7923 30.4365 26.7923C30.9662 26.7923 31.4415 26.7155 31.7989 26.6405C33.9995 26.21 35.5361 24.4829 35.5361 22.4433C35.5361 21.9342 35.4418 21.4341 35.2495 20.9448C34.1265 17.3744 30.9589 11.7537 22.1711 10.4731V4.34879C22.1711 -0.753957 14.0563 -0.753957 14.0563 4.34879V10.5089C4.62445 11.9627 1.15032 18.28 1.15032 23.7864C1.15032 33.8079 8.23647 36.6013 15.163 38.0087L19.7329 38.9642C26.2348 40.2662 27.3814 41.9344 27.3814 44.9582C27.3814 48.6535 24.2066 50.8611 18.8856 50.8611C11.9773 50.8611 10.5677 47.7962 9.62612 44.3545C9.07461 42.4559 7.32757 41.2289 5.17233 41.2289C4.70428 41.2289 4.32512 41.2896 3.87157 41.3647L3.73733 41.3914C1.50952 41.913 0.0146484 43.6383 0.0146484 45.6869C0.0146484 46.078 0.0835863 46.4102 0.14164 46.6764L0.214207 46.9818C1.212 50.3146 3.42347 57.5963 14.4591 59.2234V65.6317C14.4591 68.1822 16.5 69.5217 18.5156 69.5217C20.5329 69.5217 22.5757 68.1822 22.5757 65.6317V59.3359C31.3399 58.2107 37.0146 52.7025 37.0146 44.9046" fill="#F1E7E7"/>
  <path d="M78.8425 17.2208L84.0146 32.9465L67.9892 35.5217C66.5803 34.4934 66.008 32.7922 66.7159 31.5952L67.9275 29.5548L48.6969 17.6479C47.0732 16.6502 46.5291 14.5344 47.4888 12.9229L49.7306 9.13993C50.6869 7.52842 52.772 7.04209 54.3904 8.03807L73.6298 19.945L74.8396 17.9081C75.5511 16.7076 77.291 16.4312 78.8407 17.2208" fill="#F1E7E7"/>
  <path d="M18.5256 78.5217L2.01465 80.4363L6.60543 96.5313C8.14828 97.4077 9.94467 97.2095 10.7233 96.0313L12.0504 94.0221L31.1759 106.913C32.7799 107.997 34.9377 107.595 35.9897 106.008L38.4532 102.29C39.4997 100.695 39.0394 98.5368 37.4372 97.4531L18.3116 84.5728L19.6351 82.5655C20.4173 81.38 19.9156 79.6327 18.5256 78.5217Z" fill="#F1E7E7"/>
  <path d="M87.2523 80.9145C89.6222 81.9792 91.6075 83.8822 92.9036 86.3247C94.2957 88.9481 94.8075 92.0319 94.3534 95.0304C93.8993 98.0291 92.5064 100.761 90.41 102.737C88.3122 104.713 85.6448 105.804 82.8802 105.8M87.2523 80.9145L77.8077 105.3V105.8M87.2523 80.9145C88.254 79.0868 88.8326 77.0103 88.9352 74.8713C89.0473 72.5351 88.5876 70.2068 87.6027 68.1354C86.6177 66.0638 85.1424 64.3235 83.3293 63.1066C81.6579 61.9849 79.759 61.3483 77.8077 61.2557V58.6328C77.8077 57.6918 77.4733 56.7797 76.8639 56.0994C76.2529 55.4172 75.4116 55.0217 74.521 55.0217C73.6305 55.0217 72.7892 55.4172 72.1781 56.0994C71.5687 56.7797 71.2344 57.6918 71.2344 58.6328V61.244H66.6612V58.6328C66.6612 57.6918 66.3268 56.7797 65.7174 56.0994C65.1064 55.4172 64.2651 55.0217 63.3745 55.0217C62.484 55.0217 61.6427 55.4172 61.0316 56.0994C60.4222 56.7797 60.0879 57.6918 60.0879 58.6328V61.244H57.8013C56.9107 61.244 56.0694 61.6394 55.4584 62.3216C54.849 63.0019 54.5146 63.914 54.5146 64.8551C54.5146 65.7961 54.849 66.7082 55.4584 67.3885C56.0694 68.0707 56.9107 68.4662 57.8013 68.4662H60.0879V98.5773H57.8013C56.9107 98.5773 56.0694 98.9727 55.4584 99.6549C54.849 100.335 54.5146 101.247 54.5146 102.188C54.5146 103.129 54.849 104.042 55.4584 104.722C56.0694 105.404 56.9107 105.8 57.8013 105.8H60.0879M82.8802 105.8L82.8809 105.3V105.8H82.8802ZM82.8802 105.8H77.8077M77.8077 105.8H77.3077V108.411C77.3077 109.236 77.0141 110.027 76.4915 110.611C75.9689 111.194 75.2601 111.522 74.521 111.522C73.782 111.522 73.0732 111.194 72.5506 110.611C72.028 110.027 71.7344 109.236 71.7344 108.411V105.8H71.2344M77.8077 105.8V108.411C77.8077 109.352 77.4733 110.264 76.8639 110.944C76.2529 111.626 75.4116 112.022 74.521 112.022C73.6305 112.022 72.7892 111.626 72.1781 110.944C71.5687 110.264 71.2344 109.352 71.2344 108.411V105.8M71.2344 105.8V105.3H66.6612V105.8M71.2344 105.8H66.6612M66.6612 105.8H66.1612V108.411C66.1612 109.236 65.8676 110.027 65.345 110.611C64.8224 111.194 64.1136 111.522 63.3745 111.522C62.6355 111.522 61.9267 111.194 61.4041 110.611C60.8815 110.027 60.5879 109.236 60.5879 108.411V105.8H60.0879M66.6612 105.8V108.411C66.6612 109.352 66.3268 110.264 65.7174 110.944C65.1064 111.626 64.2651 112.022 63.3745 112.022C62.484 112.022 61.6427 111.626 61.0316 110.944C60.4222 110.264 60.0879 109.352 60.0879 108.411V105.8M60.0879 105.8V105.3" fill="white" stroke="white"/>
</svg>
