<svg width="101" height="101" viewBox="0 0 101 101" fill="none" xmlns="http://www.w3.org/2000/svg">
  <path d="M97.3525 50.7068C97.3525 24.6816 76.2528 3.58179 50.2275 3.58179C24.2023 3.58179 3.10254 24.6816 3.10254 50.7068C3.10254 76.732 24.2023 97.8318 50.2275 97.8318C76.2528 97.8318 97.3525 76.732 97.3525 50.7068Z" stroke="#B7B7B7" stroke-width="6" stroke-miterlimit="10"/>
  <path d="M57.3528 64.3685C56.1452 59.2844 49.2373 57.5852 45.5127 54.8279C43.3716 53.242 41.4663 50.7929 38.6546 50.5935C37.3587 50.5006 36.2734 50.7815 34.9888 50.4485C33.8107 50.1449 32.8863 49.5105 31.6312 49.6759C29.2863 49.984 27.8068 52.4898 25.2874 52.15C22.8972 51.8282 20.4345 49.0325 19.8907 46.7555C19.1929 43.8283 21.5084 42.879 23.9892 42.6185C25.0246 42.5097 26.1869 42.3919 27.1815 42.7703C28.491 43.2574 29.1095 44.5397 30.2854 45.1877C32.4898 46.3953 32.9362 44.465 32.5986 42.5075C32.0934 39.5757 31.5043 38.3795 34.1188 36.3631C35.9313 34.972 37.481 33.9661 37.191 31.4671C37.0188 29.9989 36.2145 29.3351 36.9645 27.8738C37.5331 26.7614 39.0941 25.7577 40.1114 25.0939C42.7373 23.3811 51.3602 23.5079 47.8372 18.7139C46.8018 17.3069 44.8919 14.7921 43.0794 14.4477C40.8138 14.0195 39.8078 16.5479 38.2287 17.6626C36.5974 18.8158 33.421 20.1254 31.7875 18.3423C29.5898 15.943 33.2443 15.1546 34.0531 13.4803C34.862 11.806 32.1795 8.6409 30.743 7.83887L23.9892 15.4129C23.7952 16.6813 23.8627 17.976 24.1877 19.2173C24.5126 20.4587 25.0881 21.6205 25.8787 22.6311C27.2223 24.3598 29.361 24.9149 29.4584 27.2757C29.5536 29.5413 29.2002 30.7013 27.7184 32.294C27.0773 32.9737 26.6241 33.9389 25.9716 34.5755C25.1719 35.3526 25.4687 35.1147 24.2203 35.3277C21.8731 35.7242 19.8748 36.3359 17.607 36.9612C13.8279 38.0057 13.479 31.8318 11.7571 29.4099L6.09305 33.9842C6.03188 34.7341 7.02195 36.1139 7.29156 36.9295C8.83898 41.5899 11.961 45.1945 13.9774 49.6532C16.1003 54.3748 21.8006 53.0653 24.3177 57.2023C26.5516 60.8726 24.1659 65.5194 25.838 69.3619C27.0523 72.1509 29.9161 72.7603 31.8917 74.7994C33.9104 76.8589 33.8673 79.6773 34.1755 82.3575C34.523 85.5101 35.0869 88.6349 35.8634 91.71C36.1375 92.7726 36.389 94.1773 37.1163 95.0541C37.6147 95.6568 39.3252 96.1756 38.6342 96.375C39.5994 96.5336 41.319 97.4353 42.1233 96.7737C43.1836 95.9037 42.9004 93.2257 43.0839 92.0159C43.6345 88.4136 45.4379 84.8905 47.8712 82.1944C50.275 79.5346 53.5692 77.7334 55.5992 74.7178C57.5771 71.7771 58.173 67.81 57.3528 64.3685ZM49.7879 70.3316C48.4285 72.7581 45.4016 74.3825 43.4555 76.3106C42.9276 76.8339 41.8038 78.6464 41.1423 78.2545C40.6688 77.9735 40.5079 75.6218 40.3334 75.0826C39.4335 72.3673 37.7153 69.9971 35.4148 68.2971C34.7056 67.7601 32.9475 67.0623 32.542 66.326C32.0888 65.5262 32.4966 63.6389 32.5125 62.7689C32.5374 61.5002 31.9597 59.3909 32.2723 58.2377C32.6348 56.9078 31.937 57.7098 33.1265 57.447C33.7541 57.3065 36.3459 57.7619 37.1276 57.925C38.3691 58.1833 39.0534 58.9559 40.0321 59.7375C42.6059 61.8015 45.4402 63.3988 48.3243 64.9802C50.5582 66.2172 51.2152 67.7828 49.7879 70.3316Z" fill="#B7B7B7"/>
  <path d="M34.0195 7.90698C35.0934 8.95596 36.1039 10.1975 37.7057 10.3017C39.2214 10.4037 40.651 9.58354 41.9741 10.6144C43.4423 11.7472 44.5003 13.1814 46.4488 13.5348C48.3337 13.8769 50.3298 12.7758 50.7965 10.8478C51.2496 9.01034 50.2731 7.01206 50.2142 5.16784C50.2142 4.91182 50.3524 3.77448 50.1757 3.5819C50.0443 3.4369 48.9477 3.60003 48.7801 3.60456C47.5521 3.64081 46.3272 3.72539 45.1052 3.85831C40.6506 4.34047 36.288 5.4582 32.1504 7.17745C32.7009 7.55807 33.392 7.70987 34.0195 7.90698Z" fill="#B7B7B7"/>
  <path d="M72.9744 20.6353C74.8979 20.6353 76.8509 19.7743 76.2301 17.5495C75.709 15.6849 74.8209 13.6617 72.6595 14.6676C71.2842 15.3065 69.3358 16.9332 69.1749 18.5464C68.9914 20.377 71.692 20.6353 72.9744 20.6353Z" fill="#B7B7B7"/>
  <path d="M71.4385 30.3707C73.4028 31.5465 76.3164 30.9937 77.7981 29.3149C78.9558 28.0008 79.6378 25.7193 81.7199 25.7216C82.6366 25.7197 83.5171 26.0786 84.1713 26.7207C85.0322 27.6111 84.8623 28.4471 85.0458 29.5618C85.4559 32.0653 88.1407 29.7046 88.8408 28.7349C89.2939 28.1028 89.9079 27.1648 89.7017 26.3424C89.5114 25.5743 88.6142 24.7564 88.2154 24.0518C87.0509 22.0128 86.0926 19.6407 84.348 17.9935C82.6692 16.4076 80.6052 16.5911 79.0125 18.2382C77.7075 19.5976 76.1918 20.6738 75.2991 22.3277C74.6693 23.49 73.9601 24.045 72.6846 24.3464C71.9822 24.5117 71.1802 24.5729 70.5912 25.0442C68.9508 26.3356 69.8843 29.4372 71.4385 30.3707Z" fill="#B7B7B7"/>
  <path d="M93.1769 31.7075C89.5383 31.7301 89.8963 38.4432 85.3628 35.2758C83.6794 34.1022 82.644 32.3962 80.5302 31.8774C78.6837 31.4242 76.7919 31.8955 74.9681 32.2104C72.895 32.5684 70.4368 32.7292 68.8645 34.2993C67.3443 35.8105 66.5399 37.8382 64.9223 39.3585C61.7935 42.3038 60.4726 45.5187 62.4981 49.6829C64.4465 53.6863 68.5224 55.859 72.92 55.5735C77.2405 55.2858 81.7287 52.78 81.6041 59.0581C81.5588 61.2784 82.0232 62.819 82.7052 64.883C83.3373 66.7861 83.2942 68.6303 83.4392 70.5946C83.7066 74.2649 84.3817 78.3793 86.2033 81.6214L89.6017 76.8274C90.0209 76.2338 90.8977 75.4023 91.1061 74.7022C91.4754 73.4629 90.7482 71.3332 90.6643 69.9444C90.5805 68.5556 90.6213 67.1486 90.4083 65.7598C90.1092 63.8136 88.9583 61.9898 88.7997 60.0663C88.5074 56.4843 89.1622 53.6251 86.4027 50.63C83.7383 47.7413 79.8324 47.048 76.1009 47.6348C74.2204 47.9293 66.651 49.1392 69.6892 44.8413C70.2896 43.9962 71.3385 43.3029 72.0137 42.4986C72.6005 41.7985 73.1103 40.5117 73.799 39.9657C74.4878 39.4196 77.6506 38.7921 78.5568 39.0707C79.4631 39.3494 80.4078 40.6567 81.194 41.2367C82.6466 42.3307 84.3416 43.0582 86.1353 43.3573C89.2302 43.8104 95.7008 42.0115 95.651 38.0421C95.6419 36.139 93.8747 33.4882 93.1769 31.7075Z" fill="#B7B7B7"/>
</svg>
