<svg width="31" height="34" viewBox="0 0 31 34" fill="none" xmlns="http://www.w3.org/2000/svg">
  <path d="M29.846 7.85557C29.8929 7.82903 29.9318 7.79104 29.9588 7.74539C29.9858 7.69973 30 7.64799 30 7.59534C30 7.54269 29.9858 7.49095 29.9588 7.4453C29.9318 7.39964 29.8929 7.36165 29.846 7.33512L17.9946 0.65136C17.2363 0.224697 16.3753 0 15.4988 0C14.6223 0 13.7614 0.224697 13.0031 0.65136L1.15397 7.33512C1.10712 7.36165 1.06825 7.39964 1.04123 7.4453C1.01422 7.49095 1 7.54269 1 7.59534C1 7.64799 1.01422 7.69973 1.04123 7.74539C1.06825 7.79104 1.10712 7.82903 1.15397 7.85557L15.344 15.9583C15.3918 15.9856 15.4462 16 15.5016 16C15.5569 16 15.6113 15.9856 15.6591 15.9583L29.846 7.85557Z" fill="white" fill-opacity="0.8"/>
  <path d="M17 18.4789V33.6975C17.0001 33.7506 17.0136 33.8028 17.0392 33.8488C17.0648 33.8948 17.1016 33.933 17.146 33.9595C17.1903 33.986 17.2406 34 17.2917 34C17.3429 34 17.3932 33.986 17.4375 33.9594L29.2609 26.5977C29.7885 26.2788 30.2266 25.8221 30.5317 25.2731C30.8367 24.724 30.9982 24.1016 31 23.4677V10.3018C30.9998 10.2487 30.9862 10.1966 30.9605 10.1507C30.9349 10.1048 30.898 10.0668 30.8537 10.0403C30.8094 10.0139 30.7592 9.99995 30.7081 10C30.657 10 30.6068 10.014 30.5625 10.0406L17.1458 18.2177C17.1016 18.2442 17.0649 18.2823 17.0393 18.3281C17.0137 18.3739 17.0002 18.4259 17 18.4789Z" fill="white" fill-opacity="0.8"/>
  <path fill-rule="evenodd" clip-rule="evenodd" d="M0.291199 10C0.342558 9.99992 0.393028 10.0139 0.437506 10.0406L13.8542 18.1647C13.8985 18.1912 13.9353 18.2294 13.9608 18.2753C13.9864 18.3213 13.9999 18.3735 14 18.4266V33.6975C13.9999 33.7507 13.9864 33.8028 13.9608 33.8488C13.9352 33.8948 13.8984 33.933 13.854 33.9595C13.8097 33.986 13.7594 34 13.7083 34C13.6571 34 13.6068 33.986 13.5625 33.9594L1.73834 26.5998C1.21036 26.2806 0.772089 25.8234 0.467119 25.2738C0.16215 24.7241 0.00110696 24.1012 6.13805e-06 23.4669V10.3047C-0.000327016 10.2514 0.0129072 10.199 0.0383704 10.1527C0.0638335 10.1064 0.100623 10.0679 0.145018 10.0411C0.189413 10.0142 0.23984 10.0001 0.291199 10ZM8 27.9878L7.9135 17L6.942 17.0088C6.78377 17.7862 6.4593 18.322 5.96858 18.6162C5.48753 18.9102 4.83133 19.061 4 19.0685L4.00782 20.0617L6.58882 20.0385L6.6515 28L8 27.9878Z" fill="white" fill-opacity="0.8"/>
</svg>
