<svg width="26" height="30" viewBox="0 0 26 30" fill="none" xmlns="http://www.w3.org/2000/svg">
  <path d="M10.875 5.4374C10.8753 6.66209 10.4524 7.84926 9.6779 8.79798C8.90343 9.7467 7.82496 10.3987 6.62501 10.6436V14.9999H16.1875C17.0329 14.9999 17.8436 14.6641 18.4414 14.0663C19.0392 13.4685 19.375 12.6578 19.375 11.8124V10.6436C18.0851 10.3803 16.9389 9.64746 16.1586 8.58708C15.3783 7.52671 15.0196 6.21438 15.1519 4.90453C15.2842 3.59467 15.8982 2.38061 16.8748 1.49771C17.8514 0.614815 19.121 0.12598 20.4375 0.12598C21.754 0.12598 23.0237 0.614815 24.0002 1.49771C24.9768 2.38061 25.5908 3.59467 25.7231 4.90453C25.8554 6.21438 25.4967 7.52671 24.7164 8.58708C23.9361 9.64746 22.7899 10.3803 21.5 10.6436V11.8124C21.5 12.51 21.3626 13.2009 21.0956 13.8454C20.8286 14.4899 20.4373 15.0756 19.944 15.5689C19.4507 16.0622 18.8651 16.4535 18.2205 16.7205C17.576 16.9875 16.8852 17.1249 16.1875 17.1249H6.62501V19.3561C7.91493 19.6194 9.06114 20.3523 9.84141 21.4127C10.6217 22.4731 10.9804 23.7854 10.8481 25.0953C10.7158 26.4051 10.1018 27.6192 9.12524 28.5021C8.14865 29.385 6.87903 29.8738 5.56251 29.8738C4.24599 29.8738 2.97637 29.385 1.99979 28.5021C1.0232 27.6192 0.409236 26.4051 0.276914 25.0953C0.144592 23.7854 0.503343 22.4731 1.28361 21.4127C2.06389 20.3523 3.21009 19.6194 4.50001 19.3561V10.6436C3.51516 10.4426 2.60755 9.96631 1.8826 9.27005C1.15764 8.57378 0.645093 7.68614 0.404474 6.71021C0.163855 5.73428 0.205044 4.71011 0.523256 3.75665C0.841468 2.80319 1.42365 1.95957 2.20217 1.32378C2.9807 0.687981 3.92363 0.286097 4.92144 0.164802C5.91925 0.0435064 6.931 0.207777 7.83918 0.638536C8.74735 1.06929 9.51469 1.74886 10.0521 2.59831C10.5894 3.44776 10.8748 4.43224 10.875 5.4374Z" fill="white"/>
</svg>
