<svg width="271" height="118" viewBox="0 0 271 118" fill="none" xmlns="http://www.w3.org/2000/svg">
  <path d="M15.2771 11.7602C17.1637 12.2299 18.6078 13.0872 19.6093 14.332C20.6341 15.5533 21.1465 17.033 21.1465 18.771C21.1465 20.2507 20.7389 21.6365 19.9237 22.9282C19.1318 24.1965 17.8974 25.2299 16.2204 26.0285C14.5435 26.8271 12.4589 27.2263 9.96674 27.2263C8.2432 27.2263 6.51965 27.0384 4.7961 26.6627C3.09585 26.2869 1.60521 25.7349 0.324196 25.0068L3.11914 18.8767C4.12066 19.4639 5.19205 19.9102 6.33332 20.2155C7.49788 20.5208 8.61585 20.6735 9.68725 20.6735C10.6422 20.6735 11.4108 20.5091 11.9931 20.1803C12.5754 19.8514 12.8665 19.3817 12.8665 18.771C12.8665 17.6437 11.8999 17.08 9.96674 17.08H6.71762V11.9716L10.3161 8.27241H1.58192V2.0014H19.8189V7.10981L15.2771 11.7602Z" fill="#731DB7"/>
  <path d="M41.5236 13.6627C42.5717 14.3203 43.3753 15.1306 43.9343 16.0935C44.5166 17.033 44.8077 18.1134 44.8077 19.3347C44.8077 20.9084 44.3419 22.2941 43.4102 23.4919C42.5019 24.6898 41.2092 25.6175 39.5322 26.2751C37.8786 26.9093 35.9803 27.2263 33.8376 27.2263C31.6948 27.2263 29.7849 26.9093 28.1079 26.2751C26.4543 25.6175 25.1616 24.6898 24.2299 23.4919C23.3216 22.2941 22.8674 20.9084 22.8674 19.3347C22.8674 18.1134 23.1469 17.033 23.7059 16.0935C24.2882 15.1306 25.1034 14.3203 26.1515 13.6627C24.5444 12.3709 23.7408 10.7503 23.7408 8.80086C23.7408 7.32119 24.1601 6.02941 24.9986 4.92552C25.8603 3.82164 27.0482 2.96437 28.5621 2.35371C30.0993 1.74305 31.8578 1.43772 33.8376 1.43772C35.8173 1.43772 37.5641 1.74305 39.0781 2.35371C40.6153 2.96437 41.8031 3.82164 42.6416 4.92552C43.5034 6.02941 43.9343 7.32119 43.9343 8.80086C43.9343 10.7503 43.1307 12.3709 41.5236 13.6627ZM33.8376 7.03934C33.2553 7.03934 32.7778 7.22724 32.4051 7.60303C32.0558 7.97882 31.8811 8.49553 31.8811 9.15317C31.8811 9.8108 32.0558 10.3275 32.4051 10.7033C32.7778 11.0791 33.2553 11.267 33.8376 11.267C34.4198 11.267 34.8857 11.0791 35.235 10.7033C35.6077 10.3275 35.794 9.8108 35.794 9.15317C35.794 8.49553 35.6077 7.97882 35.235 7.60303C34.8857 7.22724 34.4198 7.03934 33.8376 7.03934ZM33.8376 21.6247C34.6295 21.6247 35.27 21.3898 35.7591 20.9201C36.2715 20.4504 36.5277 19.828 36.5277 19.0529C36.5277 18.2778 36.2715 17.6554 35.7591 17.1857C35.27 16.7159 34.6295 16.4811 33.8376 16.4811C33.0457 16.4811 32.3935 16.7159 31.8811 17.1857C31.392 17.6554 31.1474 18.2778 31.1474 19.0529C31.1474 19.828 31.392 20.4504 31.8811 20.9201C32.3935 21.3898 33.0457 21.6247 33.8376 21.6247Z" fill="#731DB7"/>
  <path d="M64.1575 22.3645H54.8643L53.2223 26.6627H44.8374L55.5281 2.0014H63.6334L74.3241 26.6627H65.7995L64.1575 22.3645ZM61.8866 16.3754L59.5109 10.1748L57.1352 16.3754H61.8866Z" fill="#731DB7"/>
  <path d="M106.934 7.39165L100.296 26.6627H92.6096L89.7099 17.7494L86.7053 26.6627H79.0192L72.3813 7.39165H79.8577L83.1418 17.5732L86.5656 7.39165H93.2734L96.5924 17.6789L100.016 7.39165H106.934Z" fill="#731DB7"/>
  <path d="M129.05 7.39165L121.189 27.0502C120.187 29.5633 118.941 31.3248 117.451 32.3347C115.96 33.3447 114.132 33.8496 111.966 33.8496C110.894 33.8496 109.811 33.6852 108.717 33.3564C107.645 33.0511 106.795 32.6401 106.166 32.1234L108.786 26.6627C109.182 26.968 109.625 27.2146 110.114 27.4025C110.626 27.5904 111.116 27.6843 111.581 27.6843C112.443 27.6843 113.095 27.426 113.538 26.9093L105.502 7.39165H113.608L117.556 17.7141L121.573 7.39165H129.05Z" fill="#731DB7"/>
  <path d="M144.353 17.7141V26.6627H136.108V17.6084L126.885 2.0014H135.584L140.58 10.5271L145.611 2.0014H153.576L144.353 17.7141Z" fill="#731DB7"/>
  <path d="M173.434 0.521729V26.6627H165.923V25.0773C164.781 26.3691 163.034 27.015 160.682 27.015C159.005 27.015 157.456 26.6157 156.035 25.8171C154.638 24.9951 153.52 23.8207 152.681 22.2941C151.866 20.7674 151.459 19.0059 151.459 17.0095C151.459 15.0131 151.866 13.2634 152.681 11.7602C153.52 10.2336 154.638 9.07096 156.035 8.27241C157.456 7.45036 159.005 7.03934 160.682 7.03934C162.801 7.03934 164.42 7.59129 165.538 8.69517V0.521729H173.434ZM162.569 20.8144C163.477 20.8144 164.222 20.4856 164.805 19.828C165.387 19.1468 165.678 18.2074 165.678 17.0095C165.678 15.8117 165.387 14.884 164.805 14.2263C164.222 13.5687 163.477 13.2399 162.569 13.2399C161.66 13.2399 160.915 13.5687 160.333 14.2263C159.75 14.884 159.459 15.8117 159.459 17.0095C159.459 18.2074 159.75 19.1468 160.333 19.828C160.915 20.4856 161.66 20.8144 162.569 20.8144Z" fill="#731DB7"/>
  <path d="M198.207 7.39165L190.346 27.0502C189.345 29.5633 188.098 31.3248 186.608 32.3347C185.117 33.3447 183.289 33.8496 181.123 33.8496C180.051 33.8496 178.968 33.6852 177.874 33.3564C176.802 33.0511 175.952 32.6401 175.323 32.1234L177.943 26.6627C178.339 26.968 178.782 27.2146 179.271 27.4025C179.783 27.5904 180.273 27.6843 180.738 27.6843C181.6 27.6843 182.252 27.426 182.695 26.9093L174.659 7.39165H182.765L186.713 17.7141L190.73 7.39165H198.207Z" fill="#731DB7"/>
  <path d="M206.925 9.47024C208.323 7.84964 210.384 7.03934 213.109 7.03934V14.0854C212.48 13.9915 211.898 13.9445 211.362 13.9445C208.661 13.9445 207.31 15.3302 207.31 18.1017V26.6627H199.414V7.39165H206.925V9.47024Z" fill="#731DB7"/>
  <path d="M231.256 13.6627H238.418V24.0908C236.974 25.1008 235.297 25.8758 233.387 26.416C231.477 26.9562 229.602 27.2263 227.762 27.2263C225.153 27.2263 222.813 26.6861 220.74 25.6057C218.667 24.5019 217.036 22.9752 215.848 21.0258C214.684 19.0529 214.102 16.8216 214.102 14.332C214.102 11.8424 214.684 9.6229 215.848 7.67349C217.036 5.70059 218.678 4.17394 220.775 3.09354C222.894 1.98966 225.281 1.43772 227.937 1.43772C230.336 1.43772 232.478 1.84874 234.365 2.67078C236.275 3.46934 237.859 4.64368 239.116 6.19382L233.841 10.8795C232.304 9.07096 230.475 8.16671 228.356 8.16671C226.539 8.16671 225.095 8.71866 224.024 9.82254C222.952 10.9264 222.417 12.4296 222.417 14.332C222.417 16.1875 222.941 17.6789 223.989 18.8063C225.06 19.9337 226.481 20.4973 228.251 20.4973C229.299 20.4973 230.301 20.2977 231.256 19.8984V13.6627Z" fill="#731DB7"/>
  <path d="M259.469 13.6627C260.517 14.3203 261.321 15.1306 261.88 16.0935C262.462 17.033 262.753 18.1134 262.753 19.3347C262.753 20.9084 262.287 22.2941 261.356 23.4919C260.447 24.6898 259.155 25.6175 257.478 26.2751C255.824 26.9093 253.926 27.2263 251.783 27.2263C249.64 27.2263 247.73 26.9093 246.053 26.2751C244.4 25.6175 243.107 24.6898 242.175 23.4919C241.267 22.2941 240.813 20.9084 240.813 19.3347C240.813 18.1134 241.092 17.033 241.651 16.0935C242.233 15.1306 243.049 14.3203 244.097 13.6627C242.49 12.3709 241.686 10.7503 241.686 8.80086C241.686 7.32119 242.105 6.02941 242.944 4.92552C243.806 3.82164 244.993 2.96437 246.507 2.35371C248.045 1.74305 249.803 1.43772 251.783 1.43772C253.763 1.43772 255.509 1.74305 257.023 2.35371C258.561 2.96437 259.748 3.82164 260.587 4.92552C261.449 6.02941 261.88 7.32119 261.88 8.80086C261.88 10.7503 261.076 12.3709 259.469 13.6627ZM251.783 7.03934C251.201 7.03934 250.723 7.22724 250.35 7.60303C250.001 7.97882 249.826 8.49553 249.826 9.15317C249.826 9.8108 250.001 10.3275 250.35 10.7033C250.723 11.0791 251.201 11.267 251.783 11.267C252.365 11.267 252.831 11.0791 253.18 10.7033C253.553 10.3275 253.739 9.8108 253.739 9.15317C253.739 8.49553 253.553 7.97882 253.18 7.60303C252.831 7.22724 252.365 7.03934 251.783 7.03934ZM251.783 21.6247C252.575 21.6247 253.215 21.3898 253.704 20.9201C254.217 20.4504 254.473 19.828 254.473 19.0529C254.473 18.2778 254.217 17.6554 253.704 17.1857C253.215 16.7159 252.575 16.4811 251.783 16.4811C250.991 16.4811 250.339 16.7159 249.826 17.1857C249.337 17.6554 249.093 18.2778 249.093 19.0529C249.093 19.828 249.337 20.4504 249.826 20.9201C250.339 21.3898 250.991 21.6247 251.783 21.6247Z" fill="#731DB7"/>
  <path d="M23.5571 49.2277L15.6964 68.8862C14.6948 71.3993 13.4488 73.1608 11.9581 74.1708C10.4675 75.1807 8.63914 75.6857 6.47307 75.6857C5.40167 75.6857 4.31863 75.5213 3.22395 75.1925C2.15255 74.8871 1.30243 74.4761 0.673564 73.9594L3.29382 68.4987C3.68977 68.804 4.1323 69.0506 4.62142 69.2385C5.13382 69.4264 5.62294 69.5204 6.08876 69.5204C6.95053 69.5204 7.60269 69.262 8.04522 68.7453L0.00976562 49.2277H8.11509L12.0629 59.5502L16.0807 49.2277H23.5571Z" fill="#731DB7"/>
  <path d="M44.5858 58.8456C44.5858 58.963 44.5509 59.5854 44.481 60.7128H31.205C31.4845 61.4409 31.9503 62.0046 32.6025 62.4038C33.2546 62.7796 34.0698 62.9675 35.0481 62.9675C35.8865 62.9675 36.5853 62.8618 37.1443 62.6505C37.7265 62.4391 38.3554 62.075 39.0308 61.5583L43.1534 65.7507C41.2901 67.8176 38.5068 68.851 34.8035 68.851C32.4977 68.851 30.4713 68.4282 28.7245 67.5827C26.9777 66.7137 25.6268 65.5159 24.6718 63.9892C23.7169 62.4626 23.2394 60.748 23.2394 58.8456C23.2394 56.9197 23.7053 55.2051 24.6369 53.7019C25.5918 52.1753 26.8845 50.9892 28.5149 50.1437C30.1686 49.2981 32.0202 48.8754 34.0698 48.8754C36.003 48.8754 37.7615 49.2629 39.3453 50.038C40.9524 50.8131 42.2217 51.9522 43.1534 53.4553C44.1083 54.9585 44.5858 56.7552 44.5858 58.8456ZM34.1397 54.3009C33.3245 54.3009 32.6491 54.524 32.1134 54.9702C31.5777 55.4165 31.2283 56.0506 31.0653 56.8727H37.2141C37.0511 56.0741 36.7017 55.4517 36.166 55.0055C35.6303 54.5357 34.9549 54.3009 34.1397 54.3009Z" fill="#731DB7"/>
  <path d="M54.554 68.851C52.9236 68.851 51.3165 68.6748 49.7327 68.3225C48.1489 67.9702 46.8679 67.5122 45.8896 66.9486L48.0557 61.6992C48.9408 62.2394 49.9889 62.6622 51.2 62.9675C52.4112 63.2729 53.5874 63.4255 54.7286 63.4255C55.637 63.4255 56.2659 63.3551 56.6152 63.2141C56.9879 63.0497 57.1742 62.8149 57.1742 62.5095C57.1742 62.2042 56.9413 61.9928 56.4755 61.8754C56.0329 61.7579 55.2993 61.6405 54.2745 61.5231C52.714 61.3352 51.3864 61.1003 50.2917 60.8185C49.197 60.5131 48.2304 59.9377 47.3919 59.0922C46.5767 58.2467 46.1691 57.0371 46.1691 55.4635C46.1691 54.2187 46.5418 53.103 47.2871 52.1166C48.0324 51.1301 49.1388 50.3433 50.6061 49.7561C52.0967 49.169 53.8785 48.8754 55.9514 48.8754C57.3955 48.8754 58.8046 49.0163 60.1788 49.2981C61.5762 49.5565 62.7641 49.944 63.7423 50.4608L61.5762 55.7101C59.8993 54.7706 58.0593 54.3009 56.0562 54.3009C54.3327 54.3009 53.4709 54.6062 53.4709 55.2168C53.4709 55.5222 53.7038 55.7453 54.1697 55.8862C54.6355 56.0037 55.3691 56.1211 56.3707 56.2385C57.9312 56.4264 59.2471 56.673 60.3185 56.9784C61.4132 57.2837 62.3681 57.8591 63.1833 58.7047C64.0218 59.5502 64.4411 60.7598 64.4411 62.3334C64.4411 63.5312 64.0684 64.6234 63.3231 65.6098C62.5778 66.5963 61.4598 67.3831 59.9692 67.9702C58.4785 68.5574 56.6735 68.851 54.554 68.851Z" fill="#731DB7"/>
  <path d="M75.3563 50.2846H79.5138V56.0976H75.6009V68.4987H67.7052V56.0976H65.0849V50.2846H67.7052V50.1789C67.7052 47.6658 68.4505 45.6812 69.9411 44.225C71.4318 42.7453 73.528 42.0055 76.2298 42.0055C77.1148 42.0055 77.9766 42.0877 78.8151 42.2521C79.6536 42.4165 80.3523 42.6514 80.9113 42.9567L79.0247 48.4879C78.3725 48.1825 77.7786 48.0299 77.2429 48.0299C76.6606 48.0299 76.1948 48.2178 75.8455 48.5935C75.5194 48.9458 75.3563 49.4978 75.3563 50.2494V50.2846Z" fill="#731DB7"/>
  <path d="M106.058 43.8374V68.4987H99.2804L89.9872 57.2954V68.4987H81.9517V43.8374H88.7295L98.0227 55.0407V43.8374H106.058Z" fill="#731DB7"/>
  <path d="M109.612 75.6857C107.585 75.6857 105.966 75.3686 104.755 74.7345L106.642 69.2033C107.201 69.5086 107.795 69.6613 108.424 69.6613C108.913 69.6613 109.309 69.4734 109.612 69.0976C109.914 68.7453 110.066 68.1934 110.066 67.4418V49.2277H117.961V67.5122C117.961 70.0253 117.216 72.01 115.725 73.4662C114.258 74.9458 112.22 75.6857 109.612 75.6857ZM114.014 47.6776C112.593 47.6776 111.44 47.3018 110.555 46.5502C109.693 45.7751 109.262 44.8004 109.262 43.6261C109.262 42.4517 109.693 41.4888 110.555 40.7372C111.44 39.9621 112.593 39.5746 114.014 39.5746C115.458 39.5746 116.611 39.9386 117.472 40.6667C118.334 41.3948 118.765 42.3343 118.765 43.4851C118.765 44.7065 118.334 45.7164 117.472 46.515C116.611 47.29 115.458 47.6776 114.014 47.6776Z" fill="#731DB7"/>
  <path d="M129.944 50.1084V54.3361H140.146V60.6071H129.944V68.4987H121.699V43.8374H141.578V50.1084H129.944Z" fill="#731DB7"/>
  <path d="M154.14 60.3252L152.288 62.4038V68.4987H144.183V43.8374H152.288V52.786L160.324 43.8374H169.302L159.52 54.6884L169.791 68.4987H160.254L154.14 60.3252Z" fill="#731DB7"/>
  <path d="M191.23 62.2277V68.4987H170.897V43.8374H190.776V50.1084H179.003V52.9973H189.344V58.9865H179.003V62.2277H191.23Z" fill="#731DB7"/>
  <path d="M222.354 71.599C221.492 72.6324 220.456 73.4075 219.244 73.9242C218.033 74.4644 216.694 74.7345 215.227 74.7345C213.759 74.7345 212.443 74.5466 211.279 74.1708C210.114 73.8185 208.95 73.2078 207.785 72.3388C206.621 71.4933 205.293 70.2837 203.802 68.7101C201.753 68.2873 199.948 67.4888 198.387 66.3144C196.827 65.1166 195.604 63.6486 194.719 61.9106C193.857 60.1726 193.426 58.2584 193.426 56.1681C193.426 53.7019 194.02 51.4942 195.208 49.5448C196.396 47.5719 198.038 46.0335 200.134 44.9296C202.23 43.8257 204.594 43.2738 207.226 43.2738C209.858 43.2738 212.222 43.8257 214.318 44.9296C216.415 46.0335 218.057 47.5719 219.244 49.5448C220.432 51.4942 221.026 53.7019 221.026 56.1681C221.026 58.8691 220.316 61.2647 218.895 63.3551C217.474 65.4219 215.553 66.9486 213.131 67.935C213.48 68.3108 213.829 68.5692 214.179 68.7101C214.551 68.8745 214.959 68.9567 215.401 68.9567C216.613 68.9567 217.742 68.4282 218.79 67.3713L222.354 71.599ZM207.226 50.0028C206.201 50.0028 205.27 50.2611 204.431 50.7778C203.616 51.271 202.964 51.9874 202.475 52.9269C201.986 53.8429 201.741 54.9233 201.741 56.1681C201.741 57.4129 201.986 58.505 202.475 59.4445C202.964 60.3605 203.616 61.0768 204.431 61.5935C205.27 62.0868 206.201 62.3334 207.226 62.3334C208.251 62.3334 209.171 62.0868 209.986 61.5935C210.825 61.0768 211.488 60.3605 211.978 59.4445C212.467 58.505 212.711 57.4129 212.711 56.1681C212.711 54.9233 212.467 53.8429 211.978 52.9269C211.488 51.9874 210.825 51.271 209.986 50.7778C209.171 50.2611 208.251 50.0028 207.226 50.0028Z" fill="#731DB7"/>
  <path d="M244.352 62.2277V68.4987H224.019V43.8374H243.898V50.1084H232.124V52.9973H242.465V58.9865H232.124V62.2277H244.352Z" fill="#731DB7"/>
  <path d="M252.836 50.2846H245.674V43.8374H268.244V50.2846H261.082V68.4987H252.836V50.2846Z" fill="#731DB7"/>
  <path d="M10.8402 90.7114C14.1941 90.7114 16.7561 91.4747 18.5262 93.0014C20.2964 94.5046 21.1814 96.8298 21.1814 99.977V110.335H13.8447V107.798C12.9364 109.724 11.1313 110.687 8.42952 110.687C6.9156 110.687 5.62294 110.429 4.55154 109.912C3.50344 109.372 2.6999 108.655 2.14091 107.763C1.60521 106.847 1.33736 105.825 1.33736 104.698C1.33736 102.795 2.05939 101.351 3.50344 100.365C4.94749 99.3781 7.13686 98.8849 10.0716 98.8849H13.2508C12.9946 97.3817 11.7951 96.6301 9.65231 96.6301C8.79054 96.6301 7.91712 96.771 7.03205 97.0529C6.14699 97.3112 5.39003 97.6753 4.76116 98.145L2.24572 92.8957C3.3404 92.2146 4.65635 91.6861 6.19357 91.3103C7.75408 90.9111 9.30294 90.7114 10.8402 90.7114ZM10.8052 105.896C11.3642 105.896 11.865 105.743 12.3075 105.438C12.75 105.132 13.0761 104.674 13.2857 104.064V102.725H11.3293C9.72218 102.725 8.91864 103.265 8.91864 104.346C8.91864 104.792 9.08168 105.168 9.40775 105.473C9.75712 105.755 10.2229 105.896 10.8052 105.896Z" fill="#731DB7"/>
  <path d="M48.9447 85.6735V110.335H42.167L32.8738 99.1315V110.335H24.8383V85.6735H31.6161L40.9092 96.8767V85.6735H48.9447Z" fill="#731DB7"/>
  <path d="M73.565 91.0637V110.335H66.0536V108.503C65.3549 109.231 64.5397 109.783 63.608 110.159C62.6764 110.511 61.6865 110.687 60.6384 110.687C58.2161 110.687 56.2713 109.947 54.804 108.468C53.3366 106.964 52.603 104.71 52.603 101.703V91.0637H60.4987V100.329C60.4987 101.645 60.7083 102.584 61.1275 103.148C61.5468 103.711 62.164 103.993 62.9792 103.993C63.7478 103.993 64.3883 103.688 64.9007 103.077C65.4131 102.443 65.6693 101.457 65.6693 100.118V91.0637H73.565Z" fill="#731DB7"/>
  <path d="M85.6616 85.1098C88.014 85.1098 90.0636 85.5678 91.8105 86.4838C93.5806 87.3998 94.9548 88.762 95.933 90.5705C96.9112 92.379 97.4003 94.5985 97.4003 97.229C97.4003 100.047 96.8297 102.49 95.6884 104.557C94.5705 106.624 92.9867 108.197 90.937 109.278C88.9107 110.358 86.5467 110.898 83.8449 110.898C82.3775 110.898 80.9801 110.722 79.6525 110.37C78.3249 110.041 77.1953 109.571 76.2636 108.961L79.2332 103.148C80.4444 104.017 81.9234 104.451 83.6702 104.451C85.091 104.451 86.2555 104.099 87.1639 103.394C88.0955 102.666 88.7011 101.621 88.9806 100.259C87.6996 101.175 86.0808 101.633 84.1244 101.633C82.6337 101.633 81.2479 101.304 79.9669 100.646C78.6859 99.9888 77.6611 99.061 76.8925 97.8632C76.1239 96.6654 75.7395 95.2914 75.7395 93.7412C75.7395 92.0267 76.1704 90.5118 77.0322 89.1965C77.9173 87.8813 79.1168 86.8713 80.6307 86.1667C82.1446 85.4621 83.8216 85.1098 85.6616 85.1098ZM86.2206 95.8903C86.9659 95.8903 87.5715 95.6672 88.0373 95.2209C88.5031 94.7512 88.736 94.1288 88.736 93.3537C88.736 92.5786 88.5031 91.968 88.0373 91.5217C87.5715 91.0755 86.9659 90.8523 86.2206 90.8523C85.4753 90.8523 84.8697 91.0755 84.4039 91.5217C83.938 91.968 83.7051 92.5786 83.7051 93.3537C83.7051 94.1288 83.938 94.7512 84.4039 95.2209C84.8697 95.6672 85.4753 95.8903 86.2206 95.8903Z" fill="#731DB7"/>
  <path d="M113.441 90.7114C115.793 90.7114 117.68 91.4278 119.101 92.8605C120.545 94.2932 121.267 96.454 121.267 99.3429V110.335H113.371V100.717C113.371 98.5091 112.591 97.4052 111.03 97.4052C110.145 97.4052 109.423 97.7223 108.864 98.3564C108.329 98.9671 108.061 99.9418 108.061 101.281V110.335H100.165V91.0637H107.676V92.9662C108.422 92.2146 109.283 91.6509 110.262 91.2751C111.24 90.8993 112.3 90.7114 113.441 90.7114Z" fill="#731DB7"/>
  <path d="M136.714 85.6735C138.973 85.6735 140.941 86.0493 142.618 86.8008C144.295 87.5524 145.588 88.6328 146.496 90.042C147.405 91.4513 147.859 93.0953 147.859 94.9743C147.859 96.8532 147.405 98.4973 146.496 99.9065C145.588 101.316 144.295 102.396 142.618 103.148C140.941 103.899 138.973 104.275 136.714 104.275H133.185V110.335H124.94V85.6735H136.714ZM136.19 97.8632C137.308 97.8632 138.146 97.6166 138.705 97.1234C139.264 96.6066 139.544 95.8903 139.544 94.9743C139.544 94.0583 139.264 93.3537 138.705 92.8605C138.146 92.3438 137.308 92.0854 136.19 92.0854H133.185V97.8632H136.19Z" fill="#731DB7"/>
  <path d="M190.015 85.6735L182.189 110.335H173.35L169.402 97.1586L165.245 110.335H156.406L148.58 85.6735H157.069L161.332 99.6952L165.838 85.6735H173.42L177.682 99.8713L182.189 85.6735H190.015Z" fill="#731DB7"/>
  <path d="M205.851 109.665C204.663 110.346 203.045 110.687 200.995 110.687C198.316 110.687 196.255 110.041 194.811 108.749C193.367 107.434 192.645 105.473 192.645 102.866V97.9337H190.025V92.1206H192.645V86.7304H200.541V92.1206H204.454V97.9337H200.541V102.795C200.541 103.383 200.692 103.841 200.995 104.169C201.298 104.498 201.694 104.663 202.183 104.663C202.858 104.663 203.452 104.486 203.965 104.134L205.851 109.665Z" fill="#731DB7"/>
  <path d="M240.096 91.0637L233.458 110.335H225.772L222.872 101.421L219.868 110.335H212.182L205.544 91.0637H213.02L216.304 101.245L219.728 91.0637H226.436L229.755 101.351L233.178 91.0637H240.096Z" fill="#731DB7"/>
  <path d="M248.753 110.687C247.123 110.687 245.516 110.511 243.932 110.159C242.348 109.806 241.067 109.348 240.089 108.785L242.255 103.535C243.14 104.075 244.188 104.498 245.399 104.804C246.61 105.109 247.787 105.262 248.928 105.262C249.836 105.262 250.465 105.191 250.814 105.05C251.187 104.886 251.373 104.651 251.373 104.346C251.373 104.04 251.141 103.829 250.675 103.711C250.232 103.594 249.499 103.477 248.474 103.359C246.913 103.171 245.586 102.936 244.491 102.655C243.396 102.349 242.43 101.774 241.591 100.928C240.776 100.083 240.368 98.8731 240.368 97.2995C240.368 96.0547 240.741 94.9391 241.486 93.9526C242.232 92.9662 243.338 92.1794 244.805 91.5922C246.296 91.005 248.078 90.7114 250.151 90.7114C251.595 90.7114 253.004 90.8523 254.378 91.1342C255.775 91.3925 256.963 91.7801 257.942 92.2968L255.775 97.5461C254.099 96.6066 252.259 96.1369 250.255 96.1369C248.532 96.1369 247.67 96.4422 247.67 97.0529C247.67 97.3582 247.903 97.5813 248.369 97.7223C248.835 97.8397 249.568 97.9571 250.57 98.0746C252.13 98.2625 253.446 98.5091 254.518 98.8144C255.612 99.1197 256.567 99.6952 257.383 100.541C258.221 101.386 258.64 102.596 258.64 104.169C258.64 105.367 258.268 106.459 257.522 107.446C256.777 108.432 255.659 109.219 254.168 109.806C252.678 110.393 250.873 110.687 248.753 110.687Z" fill="#731DB7"/>
  <path d="M260.856 117.522C258.83 117.522 257.211 117.205 256 116.571L257.887 111.039C258.446 111.345 259.04 111.497 259.668 111.497C260.158 111.497 260.554 111.309 260.856 110.934C261.159 110.581 261.31 110.029 261.31 109.278V91.0637H269.206V109.348C269.206 111.861 268.461 113.846 266.97 115.302C265.503 116.782 263.465 117.522 260.856 117.522ZM265.258 89.5136C263.838 89.5136 262.685 89.1378 261.8 88.3862C260.938 87.6112 260.507 86.6365 260.507 85.4621C260.507 84.2878 260.938 83.3248 261.8 82.5732C262.685 81.7981 263.838 81.4106 265.258 81.4106C266.702 81.4106 267.855 81.7747 268.717 82.5028C269.579 83.2309 270.01 84.1703 270.01 85.3212C270.01 86.5425 269.579 87.5524 268.717 88.351C267.855 89.1261 266.702 89.5136 265.258 89.5136Z" fill="#731DB7"/>
</svg>
