<svg width="26" height="27" viewBox="0 0 26 27" fill="none" xmlns="http://www.w3.org/2000/svg">
  <path d="M25.1517 14.2126C25.6977 13.4853 26 12.5941 26 11.6669C26 10.1959 25.1842 8.80344 23.8712 8.02696C23.5332 7.82709 23.1484 7.72189 22.7565 7.72226H14.963L15.158 3.69569C15.2035 2.72263 14.8623 1.79871 14.1993 1.09431C13.8739 0.747112 13.4813 0.470871 13.0459 0.282655C12.6104 0.0944389 12.1413 -0.00175286 11.6675 2.41796e-05C9.9775 2.41796e-05 8.4825 1.14673 8.034 2.78815L5.24225 12.9774H5.2325V27H20.5822C20.8812 27 21.1737 26.941 21.4435 26.8231C22.9905 26.158 23.9882 24.6345 23.9882 22.9439C23.9882 22.5311 23.9297 22.1249 23.8127 21.7317C24.3587 21.0044 24.661 20.1132 24.661 19.186C24.661 18.7732 24.6025 18.367 24.4855 17.9738C25.0315 17.2465 25.3337 16.3553 25.3337 15.4281C25.3272 15.0153 25.2687 14.6058 25.1517 14.2126V14.2126ZM0 14.0259V25.9516C0 26.5315 0.46475 27 1.04 27H3.1525V12.9774H1.04C0.46475 12.9774 0 13.446 0 14.0259Z" fill="#A250E2"/>
</svg>
