<svg width="64" height="64" viewBox="0 0 64 64" fill="none" xmlns="http://www.w3.org/2000/svg">
  <path d="M32 0.794922C25.671 0.794922 19.4841 2.64009 14.2218 6.09709C8.95939 9.55408 4.85787 14.4676 2.43587 20.2164C0.0138651 25.9652 -0.619842 32.291 0.614885 38.3939C1.84961 44.4967 4.89732 50.1026 9.37259 54.5025C13.8479 58.9024 19.5497 61.8988 25.7571 63.1128C31.9645 64.3267 38.3986 63.7037 44.2459 61.3224C50.0931 58.9412 55.0908 54.9088 58.607 49.735C62.1232 44.5612 64 38.4785 64 32.2561C64 23.9121 60.6286 15.9098 54.6274 10.0097C48.6263 4.10957 40.4869 0.794922 32 0.794922V0.794922ZM31.3013 10.4378H38.192C38.333 10.4379 38.472 10.4701 38.5982 10.5319C38.7244 10.5936 38.8344 10.6831 38.9196 10.7935C39.0048 10.9039 39.0628 11.0322 39.0893 11.1683C39.1157 11.3045 39.1098 11.4447 39.072 11.5782L33.6587 29.7156L38.7387 28.1897L37.6507 31.8209L32.52 33.2891L29.192 44.3372H46.9947C47.1358 44.3379 47.2748 44.3708 47.4008 44.4331C47.5269 44.4955 47.6365 44.5857 47.7212 44.6966C47.8059 44.8076 47.8634 44.9363 47.8891 45.0727C47.9148 45.2091 47.908 45.3495 47.8693 45.4829L46.3173 50.7264C46.243 50.9759 46.0886 51.195 45.8771 51.3509C45.6656 51.5069 45.4084 51.5913 45.144 51.5916H17.9547L22.5493 36.3277L17.4667 37.8483L18.5867 34.2801L23.68 32.7595L30.1387 11.3134C30.2095 11.0627 30.3616 10.8415 30.5719 10.6834C30.7823 10.5254 31.0393 10.4391 31.304 10.4378H31.3013Z" fill="white"/>
</svg>
