<svg width="95" height="96" viewBox="0 0 95 96" fill="none" xmlns="http://www.w3.org/2000/svg">
  <path d="M52.229 21.2424L51.5244 21.947L52.2265 22.6541L58.9661 29.4415L52.229 36.1785L51.5219 36.8856L52.229 37.5927L57.8234 43.1872L58.5306 43.8943L59.2377 43.1872L65.9747 36.4501L72.7093 43.1369L73.4164 43.839L74.121 43.1344L79.7154 37.5399L80.4225 36.8328L79.7154 36.1257L72.9809 29.3912L79.7154 22.6566L80.4225 21.9495L79.7154 21.2424L74.121 15.648L73.4139 14.9408L72.7068 15.648L65.9722 22.3825L59.2377 15.648L58.5306 14.9408L57.8234 15.648L52.229 21.2424ZM17.1528 24.4328H16.1528V25.4328V33.3495V34.3495H17.1528H43.5417H44.5417V33.3495V25.4328V24.4328H43.5417H17.1528ZM44.8611 70.1328H45.8611V69.1328V61.2162V60.2162H44.8611H35.3056V50.6606V49.6606H34.3056H26.3889H25.3889V50.6606V60.2162H15.8333H14.8333V61.2162V69.1328V70.1328H15.8333H25.3889V79.6884V80.6884H26.3889H34.3056H35.3056V79.6884V70.1328H44.8611ZM79.1667 76.7301H80.1667V75.7301V67.8134V66.8134H79.1667H52.7778H51.7778V67.8134V75.7301V76.7301H52.7778H79.1667ZM79.1667 63.5356H80.1667V62.5356V54.6189V53.6189H79.1667H52.7778H51.7778V54.6189V62.5356V63.5356H52.7778H79.1667ZM10.5556 1.52173H84.4444C89.6977 1.52173 94 5.82401 94 11.0773V84.9662C94 90.2194 89.6977 94.5217 84.4444 94.5217H10.5556C5.30228 94.5217 1 90.2194 1 84.9662V11.0773C1 5.82401 5.30228 1.52173 10.5556 1.52173Z" stroke="white" stroke-width="2"/>
</svg>
