<svg width="32" height="32" viewBox="0 0 32 32" fill="none" xmlns="http://www.w3.org/2000/svg">
  <path d="M9.92888 0.00955683C8.91888 -0.0854432 7.97888 0.535807 7.72076 1.51706L6.79513 5.03393C18.5214 5.37706 26.4539 13.1971 26.9501 24.8464L30.5089 23.8602C31.4914 23.5877 32.102 22.6302 31.9851 21.6164C30.6801 10.3177 21.2983 1.08268 9.92888 0.00955683ZM6.27451 7.00956L0.0338803 30.7277C-0.011487 30.9 -0.0106119 31.0812 0.0364174 31.2531C0.0834467 31.4249 0.174967 31.5813 0.301745 31.7065C0.428524 31.8317 0.586077 31.9213 0.758511 31.9661C0.930946 32.011 1.11216 32.0096 1.28388 31.9621L24.9714 25.3933C24.7045 14.4627 17.2789 7.13456 6.27451 7.01206V7.00956ZM7.99951 26.0002C7.60394 26.0002 7.21726 25.8829 6.88837 25.6631C6.55947 25.4434 6.30312 25.131 6.15175 24.7655C6.00037 24.4001 5.96076 23.998 6.03793 23.61C6.11511 23.222 6.30559 22.8657 6.58529 22.586C6.865 22.3063 7.22136 22.1158 7.60932 22.0386C7.99729 21.9614 8.39942 22.001 8.76487 22.1524C9.13032 22.3038 9.44268 22.5601 9.66244 22.889C9.88221 23.2179 9.99951 23.6046 9.99951 24.0002C9.99951 24.5306 9.78879 25.0393 9.41372 25.4144C9.03865 25.7895 8.52994 26.0002 7.99951 26.0002ZM10.9995 16.5002C10.6039 16.5002 10.2173 16.3829 9.88836 16.1631C9.55947 15.9434 9.30312 15.631 9.15175 15.2655C9.00037 14.9001 8.96076 14.498 9.03793 14.11C9.1151 13.722 9.30559 13.3657 9.58529 13.086C9.865 12.8063 10.2214 12.6158 10.6093 12.5386C10.9973 12.4614 11.3994 12.501 11.7649 12.6524C12.1303 12.8038 12.4427 13.0601 12.6624 13.389C12.8822 13.7179 12.9995 14.1046 12.9995 14.5002C12.9995 15.0306 12.7888 15.5393 12.4137 15.9144C12.0386 16.2895 11.5299 16.5002 10.9995 16.5002ZM17.4995 23.0002C17.1039 23.0002 16.7173 22.8829 16.3884 22.6631C16.0595 22.4434 15.8031 22.131 15.6517 21.7655C15.5004 21.4001 15.4608 20.998 15.5379 20.61C15.6151 20.222 15.8056 19.8657 16.0853 19.586C16.365 19.3063 16.7214 19.1158 17.1093 19.0386C17.4973 18.9614 17.8994 19.001 18.2649 19.1524C18.6303 19.3038 18.9427 19.5601 19.1624 19.889C19.3822 20.2179 19.4995 20.6046 19.4995 21.0002C19.4995 21.5306 19.2888 22.0393 18.9137 22.4144C18.5386 22.7895 18.0299 23.0002 17.4995 23.0002Z" fill="white"/>
</svg>
