<svg width="47" height="43" viewBox="0 0 47 43" fill="none" xmlns="http://www.w3.org/2000/svg">
  <path fill-rule="evenodd" clip-rule="evenodd" d="M4.84477 4.56867C4.84477 0.75774 4.87941 0.199147 5.12161 0.106223C5.27386 0.0477738 13.2511 0 22.8489 0C36.1881 0 40.3489 0.0495269 40.5093 0.21C40.8074 0.508021 40.8074 8.41687 40.5093 8.71489C40.3539 8.87029 38.6932 8.92489 34.1219 8.92489H27.9445V11.1999C27.9445 12.9841 27.9951 13.4748 28.1788 13.4748C29.7106 13.4748 35.8731 14.2672 37.7006 14.6991C38.1096 14.7957 38.8183 14.9627 39.2756 15.0699C41.9879 15.7062 44.2998 16.7672 45.376 17.8696C45.9584 18.466 46.0568 18.678 46.0568 19.3373C46.0568 19.9996 45.9584 20.2093 45.3568 20.8286C43.3572 22.8871 37.3244 24.5011 29.3023 25.1241L27.9476 25.2293L27.9023 34.008L27.857 42.787L23.132 42.8362C20.5333 42.8631 18.23 42.8419 18.0134 42.7891L17.6196 42.6928V33.9681V25.2434L17.0727 25.1341C16.7719 25.0739 16.2011 25.0252 15.804 25.0259C14.5853 25.0278 11.2674 24.5522 8.28382 23.9479C2.63577 22.804 -0.68848 20.6763 0.120533 18.7232C1.04085 16.5014 6.8142 14.4982 14.2591 13.8177C15.3856 13.7148 16.563 13.5919 16.8759 13.5448L17.4446 13.4589V11.192V8.92489H11.1447H4.84477V4.56867ZM36.3384 16.1199C34.8646 15.764 31.1175 15.1233 29.782 14.9989C29.397 14.963 28.8261 14.9205 28.5132 14.9042L27.9445 14.8748V17.9159C27.9445 20.136 27.8855 21.0055 27.7257 21.1369C27.3894 21.4138 18.3084 21.6247 17.8266 21.3669C17.4556 21.1683 17.4446 21.0713 17.4446 18.0153V14.8682L17.0509 14.9481C16.8342 14.9922 16.111 15.0761 15.4435 15.1347C13.6029 15.2962 9.33714 16.1899 7.46974 16.8052C6.55537 17.1066 5.17727 17.6566 4.40728 18.0274C2.15785 19.1108 1.99336 19.3766 3.24739 19.9009C6.50883 21.2645 13.7004 22.0426 23.0445 22.0426C28.0581 22.0426 33.5992 21.778 35.794 21.4336C36.1449 21.3786 36.9437 21.2537 37.5694 21.156C40.3172 20.7267 43.1702 19.933 43.5319 19.497C43.7309 19.2573 43.7025 19.1689 43.3357 18.8859C42.19 18.002 39.1405 16.7965 36.3384 16.1199Z" fill="#F2F2F2"/>
</svg>
