<svg width="27" height="19" viewBox="0 0 27 19" fill="none" xmlns="http://www.w3.org/2000/svg">
  <path d="M15.1406 0.75L25.0894 0.752187L25.3256 0.785L25.5728 0.857187L25.7959 0.962188L25.8791 1.0125L25.9863 1.08906L26.1525 1.23563L26.3363 1.45656L26.4653 1.67531L26.555 1.905L26.6053 2.11719L26.6272 2.39062V12.2431C26.6271 12.6588 26.4692 13.0589 26.1854 13.3627C25.9016 13.6664 25.5131 13.8511 25.0984 13.8794C24.6837 13.9078 24.2737 13.7776 23.9512 13.5153C23.6288 13.253 23.4179 12.878 23.3613 12.4662L23.3481 12.2431L23.3438 6.35L14.1125 15.5878C13.8345 15.8668 13.4653 16.0365 13.0725 16.0658C12.6797 16.0951 12.2895 15.9821 11.9731 15.7475L11.7894 15.5878L8.57813 12.3656L3.1772 17.7687C2.88445 18.0623 2.49143 18.2341 2.07716 18.2497C1.66288 18.2653 1.25807 18.1235 0.944105 17.8527C0.630143 17.582 0.430316 17.2024 0.3848 16.7904C0.339284 16.3783 0.451455 15.9643 0.698758 15.6316L0.858446 15.4478L7.41657 8.88531C7.69448 8.60689 8.06319 8.43759 8.45549 8.40828C8.84778 8.37897 9.23755 8.49159 9.55376 8.72563L9.73751 8.88531L12.9531 12.1097L21.0272 4.03125H15.1406C14.7442 4.03123 14.3611 3.88766 14.0623 3.62707C13.7636 3.36649 13.5692 3.00652 13.5153 2.61375L13.5 2.39062C13.5 1.9555 13.6729 1.5382 13.9805 1.23053C14.2882 0.922851 14.7055 0.75 15.1406 0.75Z" fill="white"/>
</svg>
