<svg width="95" height="103" viewBox="0 0 95 103" fill="none" xmlns="http://www.w3.org/2000/svg">
  <path d="M47.5068 46.2795L8.88344 23.5592L41.4072 4.65957C41.4075 4.65942 41.4077 4.65926 41.408 4.65911C43.2587 3.58656 45.3598 3.02173 47.4989 3.02173C49.6382 3.02173 51.7396 3.58673 53.5905 4.65957L86.1212 23.5595L47.5068 46.2795ZM48.3109 46.7525L48.309 46.7514C48.31 46.752 48.311 46.7526 48.312 46.7532L48.3109 46.7525Z" stroke="#616161" stroke-width="5"/>
  <path d="M1.37021 30.5535C1.23091 30.4731 1.07285 30.4309 0.911997 30.4312C0.751147 30.4314 0.593216 30.4741 0.454177 30.555C0.315137 30.6359 0.199918 30.752 0.120171 30.8917C0.0404237 31.0314 -0.00102417 31.1897 1.92236e-05 31.3505V71.061C0.00346687 72.9746 0.507833 74.854 1.46296 76.5123C2.41808 78.1705 3.79068 79.5498 5.44425 80.513L42.476 102.717C42.6148 102.797 42.7722 102.839 42.9325 102.839C43.0927 102.839 43.2502 102.797 43.389 102.717C43.5279 102.637 43.6432 102.522 43.7234 102.383C43.8037 102.245 43.846 102.087 43.8462 101.927V55.8541C43.846 55.694 43.8037 55.5366 43.7236 55.3979C43.6434 55.2593 43.5282 55.1441 43.3894 55.064L1.37021 30.5535Z" fill="#616161"/>
  <path d="M88.2956 78.3412L88.2817 78.3494L88.2678 78.3577L53.6538 99.1133V56.9258L92.5 34.1248V71.0573C92.495 72.5319 92.1047 73.9797 91.3677 75.257C90.6302 76.5354 89.5711 77.5987 88.2956 78.3412Z" stroke="#616161" stroke-width="5"/>
</svg>
