<svg width="111" height="103" viewBox="0 0 111 103" fill="none" xmlns="http://www.w3.org/2000/svg">
  <path d="M84.1061 0.832434C85.638 0.449235 87.2371 0.420092 88.782 0.74722C90.3268 1.07435 91.7768 1.74914 93.022 2.72038C94.2671 3.69162 95.2745 4.93378 95.9679 6.35254C96.6612 7.77131 97.0222 9.32939 97.0234 10.9085V19.363H100.488C103.245 19.363 105.889 20.4581 107.839 22.4076C109.788 24.357 110.883 27.0009 110.883 29.7578V92.1269C110.883 94.8838 109.788 97.5277 107.839 99.4771C105.889 101.427 103.245 102.522 100.488 102.522H10.3997C7.64284 102.522 4.99887 101.427 3.04946 99.4771C1.10005 97.5277 0.00488349 94.8838 0.00488349 92.1269V29.7578C0.00391637 27.0819 1.03496 24.5086 2.8834 22.5737C4.73185 20.6388 7.2553 19.4912 9.92849 19.3699L84.1061 0.832434ZM38.549 19.363H90.0935V10.9085C90.0923 10.3828 89.9715 9.8642 89.7402 9.39208C89.5089 8.91995 89.1733 8.50664 88.7586 8.18346C88.3439 7.86027 87.8612 7.63568 87.3468 7.5267C86.8325 7.41772 86.3002 7.4272 85.7901 7.55443L38.549 19.363ZM10.3997 26.2929C9.48077 26.2929 8.59944 26.6579 7.94964 27.3077C7.29983 27.9575 6.93478 28.8389 6.93478 29.7578V92.1269C6.93478 93.0458 7.29983 93.9272 7.94964 94.577C8.59944 95.2268 9.48077 95.5918 10.3997 95.5918H100.488C101.407 95.5918 102.289 95.2268 102.938 94.577C103.588 93.9272 103.953 93.0458 103.953 92.1269V29.7578C103.953 28.8389 103.588 27.9575 102.938 27.3077C102.289 26.6579 101.407 26.2929 100.488 26.2929H10.3997Z" fill="white"/>
  <g clip-path="url(#clip0)">
    <path d="M61.2389 67.099L61.2454 67.0903C61.0431 67.6737 60.6617 68.1784 60.1556 68.5324C59.5669 68.946 58.7397 69.2721 57.5558 69.329L53.2009 69.3377V62.9258C53.8312 62.9433 56.6257 62.8973 57.8381 62.9586C59.4181 63.0352 60.4007 63.6611 60.9237 64.4204C61.4971 65.1885 61.5649 66.2149 61.2389 67.099ZM56.5798 59.9627C57.6805 59.9102 58.4443 59.6082 58.9892 59.2274C59.4575 58.9079 59.8098 58.4242 59.9959 57.8903C60.2891 57.0696 60.23 56.1177 59.6982 55.4065C59.2102 54.7084 58.302 54.1284 56.8402 54.0584C55.7569 54.0015 53.748 54.0518 53.1987 54.0365V59.9649C53.2534 59.9736 56.5667 59.9627 56.5798 59.9627ZM81.7047 61.7965C81.7047 76.299 69.9465 88.0572 55.444 88.0572C40.9416 88.0572 29.1833 76.299 29.1833 61.7965C29.1833 47.2941 40.9416 35.5359 55.444 35.5359C69.9465 35.5359 81.7047 47.2941 81.7047 61.7965ZM67.1519 66.4841C67.2 63.2518 64.4383 61.3808 62.9764 60.8555C64.5411 59.781 65.6156 58.573 65.6156 56.2927C65.6156 52.671 62.0135 50.975 59.823 50.7583C59.6435 50.7386 59.1446 50.7299 59.1446 50.7299V47.2678H55.5709L55.5797 50.7321H53.19V47.281H49.5572V50.7145C48.9182 50.7299 45.0732 50.7277 45.0732 50.7277V53.7936H46.3228C47.638 53.8286 48.1217 54.5858 48.0691 55.2752V68.4952C48.061 68.7122 47.974 68.9187 47.8246 69.0762C47.6752 69.2337 47.4735 69.3313 47.2572 69.3509C46.7123 69.3749 45.8983 69.3509 45.8983 69.3509L45.198 72.826H49.566V76.3274H53.2009V72.8457H55.5884V76.334H59.1424V72.8588C63.2981 72.9683 67.1147 70.5151 67.1519 66.4841Z" fill="white"/>
  </g>
  <defs>
    <clipPath id="clip0">
      <rect width="52.5213" height="52.5213" fill="white" transform="translate(29.1833 35.5359)"/>
    </clipPath>
  </defs>
</svg>
